<svg viewBox="0 0 471.5 69.3" xmlns="http://www.w3.org/2000/svg"><path d="m364.8 14.1c-.1-.2-.3-.2-.5-.2h-8.3c-.3 0-.6.2-.6.5l-5.9 30.5-7-18.6c-.1-.2-.3-.4-.6-.4h-6.2c-.3 0-.5.2-.6.4l-7 18.4-5.9-30.4c0-.3-.3-.5-.6-.5h-8.3c-.2 0-.4 0-.5.2s-.2.4-.1.6l10 45.4c0 .3.3.5.6.5h7.8c.3 0 .5-.2.6-.4l7.2-19.2 7.2 19.2c.1.2.3.4.6.4h7.8c.3 0 .6-.2.6-.5l9.9-45.3c0-.2 0-.4-.1-.6z" fill="#02924b"/><path d="m190.7 25.7c-5.9 0-9.1 1.2-12.3 4.7-.2.2-.2.5 0 .7l5.3 5.2s.2.2.4.1c.1 0 .3 0 .4-.2 1.5-1.7 2.8-2.6 6-2.6s5.7 1.3 5.7 4.7v1.2h-7.3c-8.7 0-11.8 5.2-11.8 10.1s1 5.9 2.9 7.8c2.1 2.1 5 3.1 8.8 3.1s5.5-.7 7.6-2.5v1.7c0 .3.2.5.5.5h8.1c.3 0 .5-.2.5-.5v-21.8c0-8-5.1-12.2-14.6-12.2zm-.6 27.1c-2 0-4.3-.6-4.3-3.3s2.6-3.3 4.1-3.3h6.1v1.3c0 2-.3 3.2-1.1 3.8-1.3 1.2-2.6 1.5-4.9 1.5z" fill="#fff"/><path d="m252.1 40 11.6-13.1c.1-.1.2-.4 0-.5 0-.2-.3-.3-.5-.3h-10c-.2 0-.3 0-.4.2l-10.1 12.5v-24.4c0-.3-.2-.5-.5-.5h-8.3c-.3 0-.5.2-.5.5v45.3c0 .3.2.5.5.5h8.3c.3 0 .5-.2.5-.5v-9.7l2.9-3.3 7.8 13.2c0 .2.3.2.4.2h10.2c.2 0 .4-.1.4-.3s0-.4 0-.5l-12.5-19.5z" fill="#fff"/><path d="m278.1 25.7c-9.2 0-15 6.7-15 17.4s8.6 17.5 15.8 17.5 9.6-2.1 13-5.4c0 0 .1-.2.1-.4 0-.1 0-.3-.2-.4l-5-4.9c-.2-.2-.5-.2-.7 0-2 2-3.6 3-7.2 3s-6.5-2.4-6.7-6.4h20.2c.3 0 .5-.2.5-.5v-3.7c0-9.9-5.9-16.4-15-16.4zm0 7.9c2.4 0 4.2 1.1 5.1 3.1.4 1 .6 1.8.7 2.9h-11.5c0-1.1.3-1.9.7-2.9.9-2 2.7-3.1 5.1-3.1z" fill="#fff"/><path d="m311.1 26.1h-4.1v-7.2c0-.3-.2-.5-.5-.5h-8.3c-.3 0-.5.2-.5.5v7.2h-3c-.3 0-.5.2-.5.5v6.1c0 .3.2.5.5.5h3v17c0 5 3.1 10 10.1 10h4.5c.3 0 .5-.2.5-.5v-7c0-.3-.2-.5-.5-.5h-3c-1.6 0-2.4-.8-2.4-2.5v-16.5h5.4c.3 0 .5-.2.5-.5l-1.2-6.1c0-.3-.2-.5-.5-.5z" fill="#fff"/><g fill="#02924b"><path d="m376.2 25.7c-5.9 0-9.1 1.2-12.3 4.7-.2.2-.2.5 0 .7l5.3 5.2s.2.2.4.1c.1 0 .3 0 .4-.2 1.5-1.7 2.8-2.6 6-2.6s5.7 1.3 5.7 4.7v1.2h-7.3c-8.7 0-11.8 5.2-11.8 10.1s1 5.9 2.9 7.8c2.1 2.1 5 3.1 8.8 3.1s5.5-.7 7.6-2.5v1.7c0 .3.2.5.5.5h8.1c.3 0 .5-.2.5-.5v-21.8c0-8-5.1-12.2-14.6-12.2zm-.6 27.1c-2 0-4.3-.6-4.3-3.3s2.6-3.3 4.1-3.3h6.1v1.3c0 2-.3 3.2-1.1 3.8-1.3 1.2-2.6 1.5-4.9 1.5z"/><path d="m411.2 26h-5.4v-7.1c0-.3-.2-.5-.5-.5h-8.3c-.3 0-.5.2-.5.5v7.1h-3c-.3 0-.5.2-.5.5v6.2c0 .3.2.5.5.5h3v17c0 5 3.1 10 10.1 10h4.5c.3 0 .5-.2.5-.5v-7c0-.3-.2-.5-.5-.5h-3c-1.6 0-2.4-.8-2.4-2.5v-16.5h5.4c.3 0 .5-.2.5-.5v-6.2c0-.3-.2-.5-.5-.5z"/><path d="m434.5 49.7s-.2-.1-.4-.1c-.1 0-.3 0-.4.2-1.7 1.8-3 2.5-5 2.5s-3.2-.6-4.3-2c-1.2-1.5-1.7-3.7-1.7-7.1s.5-5.5 1.7-7c1.1-1.4 2.5-2 4.3-2s3.3.7 5 2.5c0 0 .2.2.4.2.1 0 .3 0 .4-.1l5.6-5.6c.2-.2.2-.5 0-.7-3-3.1-6.6-4.6-11.3-4.6-14.2 0-15.3 13.3-15.3 17.4 0 16.2 11.7 17.5 15.3 17.5s8.3-1.5 11.3-4.7c.2-.2.2-.5 0-.7l-5.6-5.5z"/><path d="m459.9 25.7c-2.8 0-5.3 1-7.5 2.8v-14.1c0-.3-.2-.5-.5-.5h-8.3c-.3 0-.5.2-.5.5v45.3c0 .3.2.5.5.5h8.3c.3 0 .5-.2.5-.5v-20.2c0-5 3.7-5.4 4.8-5.4s4.9.4 4.9 5.4v20.2c0 .3.2.5.5.5h8.3c.3 0 .5-.2.5-.5v-21.5c0-7.8-4.4-12.6-11.6-12.6z"/></g><path d="m221.3 34.3c1.7 0 2.6.8 3.6 1.8 0 0 .2.1.4.1.1 0 .3 0 .4-.1l5.5-6.8c.2-.2.2-.5 0-.7-2.6-2.3-4.4-2.8-7.1-2.8s-4.2 1.6-4.2 1.6c-.8.6-1.5 1.4-2.1 2.4v-3c0-.3-.3-.6-.6-.6h-7.6c-.4 0-.6.3-.6.6v32.9c0 .4.3.6.6.6h7.9c.4 0 .6-.3.6-.6v-21.8c0-2.3 1.6-3.7 3.3-3.7z" fill="#fff"/><path d="m173.3 14.4c0-.3-.3-.6-.6-.6h-8c-.2 0-.3 0-.4.2l-11.6 19.7-11.6-19.7c0-.1-.2-.2-.4-.2h-8c-.3 0-.6.3-.6.6v45.4c0 .3.2.5.5.5h8.1c.3 0 .5-.2.5-.5v-27.4s0 0 0 0l8.1 13.7c0 .1.2.2.4.2h6c.2 0 .3 0 .4-.2l8.1-13.7s0 27.4 0 27.4c0 .3.2.5.5.5h8.1c.3 0 .5-.2.5-.5z" fill="#fff"/><path d="m70.2 23.2v.3.2l-10.8 18.3c-.2.3-.6.5-.9.4s-.6-.5-.6-.9v-12.5l-12.6 21.3c-.1.3-.4.4-.7.4h-11c-.4 0-.8-.4-.8-.9v-14.1s-19.8 33.2-19.8 33.2c-.1.2-.4.4-.7.4h-11.5c-.3 0-.5-.2-.7-.4-.1-.3-.1-.6 0-.9l32-53.7c.1-.2.4-.4.6-.4h11.4c.4 0 .8.4.8.9v21s12.5-21.4 12.5-21.4c.1-.3.4-.4.7-.4h11.4c.4 0 .8.4.8.9v8.4z" fill="#fff"/><path d="m128.9 9.4-4.8-9.1c0-.1-.2-.2-.3-.2s-.3 0-.4 0l-14.2 9.1c-.2.1-.3.3-.2.6s.3.4.5.4h2.6l-16.8 28.3v-14.1c0-.5-.4-.9-.8-.9h-11c-.3 0-.5.2-.7.4l-12.6 21.3v-12.9c0-.4-.2-.8-.6-.9-.3-.1-.7 0-.9.4l-10.8 18.3v.2.3 8.8c0 .5.3.9.8.9h11.4c.3 0 .5-.2.7-.4l12.4-21.4v21c0 .5.4.9.8.9h11.4c.3 0 .5-.2.6-.4l29.6-49.7h3c.2 0 .3 0 .4-.2 0-.1 0-.3 0-.5z" fill="#02924b"/></svg>