<svg enable-background="new 0 0 396.4 457.5" viewBox="0 0 396.4 457.5" xmlns="http://www.w3.org/2000/svg"><path d="m395.7 450-17.7-31.9-52.9-98.1-14.9-27.9c-1-1.9-.3-4.2 1.5-5.2 21.5-15.1 39.2-32.8 51.6-53.9s19.4-45.4 19.4-73.8c0-90.8-71.9-155.1-161.8-158.9-.7 0-1.4 0-2.1-.1-.3 0-.5 0-.8 0-.6 0-1.2 0-1.9 0s-1.2 0-1.9 0h-2.8l-130.1-.2c-22.6 0-41 18.3-41 41v154.2 5h-30.3c-5.5 0-10 4.5-10 10v99.8c0 5.5 4.5 10 10 10h30.4v5.1 82.2c0 5.5 4.5 10 10 10h100.9c5.5 0 10-4.5 10-10v-82.2c0-2.8 0-5 0-5h22.1c3.6 0 7 2 8.7 5.1l10.4 18.8 39.1 74.1 18.9 34.3c1.8 3.2 5.1 5.2 8.8 5.2h121.9c4-.1 6.4-4.3 4.5-7.6zm-274.3-78c0 3.2-2.6 5.8-5.8 5.8h-29.4c-3.2 0-5.8-2.6-5.8-5.8v-52h41zm202.1 46.1h-30.5c-3.6 0-7-2-8.8-5.2l-41-77.5-28.1-50.8c-1.8-3.2-5.1-5.1-8.8-5.1l-161.4.2c-2.8 0-5-2.2-5-5v-30c0-2.7 2.2-5 5-5 46.8-.1 160.7-.4 160.7-.5 48.7-1.1 88-31.1 88-80.1 0-40.6-27-65.1-64.1-76.2-.5-.2-.9-.3-1.4-.4-7.1-2-14.6-3.2-22.3-3.4-.5 0-1 0-1.5 0h-2.8c-.1 0-.2 0-.3 0l-69.4.6c-5.7.1-10.4 4.7-10.4 10.5v59.1 19.8 31.1h-41l-.1-139.7c0-11.3 9.2-20.5 20.5-20.5l111.2.1h.2 1.4.6 1.6c1 0 2.1 0 3.1.1 68.7 2.8 123.8 49.6 123.8 119 0 55.4-35.1 93.6-84.3 111.1-2.9 1-4.2 4.4-2.7 7.1l72.2 133.2c1.9 3.4-.6 7.5-4.4 7.5zm-162-217.9v-75.6c0-2.8 2.3-5.1 5.1-5.1l11.9-.1 23.8-.4h1.3.6.1.3c4.2 0 49 0 49 40.1 0 41-42.2 40.8-53.5 41h-33.6c-2.7.1-5 .1-5 .1z" fill="#1d1515"/></svg>