<?xml version="1.0" encoding="UTF-8"?>
<svg id="Layer_1" data-name="Layer 1" xmlns="http://www.w3.org/2000/svg" version="1.1" viewBox="0 0 104.1 104.1">
  <defs>
    <style>
      .cls-1 {
        fill: #8a8985;
        stroke-width: 0px;
      }
    </style>
  </defs>
  <g>
    <path class="cls-1" d="M34.3,80.7h0c.2,0,.4-.1.6-.3.1-.2.2-.4.2-.6,0-.6.2-4.2.4-6.8.6-.5,1.2-1,1.8-1.6.1,0,.2-.2.2-.4,0-.2,0-.5-.2-.7-.1-.2-.3-.3-.6-.3-.2,0-.3,0-.5.2-.6.5-1.2,1-1.8,1.5-1.5,0-2.7-.1-3.6-.1-.4,0-.8,0-1.1,0-2.7,0-2.9.2-3,.7,0,.2,0,.4,0,.6,0,.2.3.3.4.3.2,0,.4,0,.6,0,.2,0,.6,0,1.8,0s.9,0,1.5,0c.6,0,1.2,0,1.8,0-.7.7-1.5,1.3-2.2,2-1.4,0-2.6,0-3.6-.1-.4,0-.8,0-1.1,0-2.7,0-2.9.2-3,.7,0,.2,0,.4,0,.6,0,.2.3.3.4.3.2,0,.4,0,.6,0,.2,0,.6,0,1.8,0s.9,0,1.5,0c.6,0,1.2,0,1.8,0-.6.5-1.1,1-1.7,1.6l-.5.5c0,0-.2.2-.3.3-1.4,0-2.5,0-3.4-.1-.4,0-.8,0-1.1,0-2.7,0-2.9.2-3,.7-.1.4.1.8.5.9.2,0,.4,0,.6,0,.2,0,.6,0,1.8,0s1,0,1.5,0c.5,0,1,0,1.6,0-.3.3-.5.5-.8.8h-.1c0,.1,0,.2,0,.2-.8.7-1.6,1.5-2.5,2.2-.1,0-.2.2-.2.4,0,.2,0,.5.2.7.1.2.3.3.5.3h0c.2,0,.3,0,.5-.2,1.2-1.1,2.4-2.1,3.5-3.1-.2,3.2-.3,4.5-.2,5.3v.2c0,0,0,0,0,0,0,.5.2.7.6.7,0,0,0,0,0,0h0c.2,0,.4-.1.6-.3.1-.2.2-.4.2-.6,0-.6.2-4.3.4-6.8.8-.7,1.5-1.4,2.2-2.1-.2,2.9-.2,4.3-.2,5v.2c0,0,0,0,0,0,0,.6.2.7.6.7,0,0,0,0,0,0h0c.2,0,.4-.1.6-.3.1-.2.2-.4.2-.6,0-.6.2-4,.3-6.6l.3-.3c.6-.6,1.2-1.1,1.8-1.7-.2,2.8-.2,4.3-.2,5.1v.2c0,0,0,0,0,0,0,.5.2.7.6.7,0,0,0,0,0,0ZM34.3,80.6h0s0,0,0,0ZM22.3,84.9h0s0,0,0,0ZM26.8,87.8h0s0,0,0,0ZM30.6,84h0s0,0,0,0Z"/>
    <polygon class="cls-1" points="59.7 48.2 59.9 48.3 60.6 48.1 61.3 47.6 61.5 47.4 61.7 46.9 61.5 46.3 60.7 45.4 60 45.4 59.3 45.9 58.7 46.7 58.9 47.5 59.2 47.9 59.7 48.2"/>
    <path class="cls-1" d="M69.4,30l-1.4.6-1.3.8-1.1,1-.9,1.2-.7,1.3-.6,1.6-.2.2-.8,1.3-.4.6-1.1,1-1.2.8-.3.2.2-1.5v-.3c.1,0,.2-1.6.2-1.6v-.7c0,0-.3-.7-.3-.7l-.8-1.3-.7-.5-.6-.2h-.8s-.7.2-.7.2l-.7.4-1.2,1-1,1.1-.8,1.3-.2.3h-.2c0,0,.4-1.2.4-1.2l.4-1.4.2-.7.3-.7v-.8c.1,0,.7-1.3.7-1.3l2.4-1.8,1.2-.9.4-.5.6-.5,1-1.2.5-.6.6-1.4v-.8c.1,0-.1-.7-.1-.7l-.8-1.3-.3-.2h-.4c0-.1-.6,0-.6,0l-.8.3-1.3.9-.9,1.2-.7,1.3-.6,1.4-.3.7-.5,1.4-.4.7v.6c0,0-.6.5-.6.5l-1.4,1-1.3.7-1.2.8-.7.4-1.1.9-.7.4h-.4c0,.1-.1.3-.1.3l-1.3.8-1.2.8-1.3.8-2.5,1.6-.6.4-1.3.8-1.2.8-.7.4-.4.3-.7.3-1.1,1-1.2.8-.6.5-.4.4h-.3c0,.1-1.2,1.1-1.2,1.1l-1.1,1-1,1.1-1,1.1-.9,1.1-1,1.2-.7,1.3-.8,1.3-.5,1.4-.4,1.4-.2,1.5v.9s-.1.4-.1.4v.8s.4,1.6.4,1.6l.6,1.4.8,1.3,1,1.1,1.2.9,1.4.6h0c0,0,.4,0,.4,0h0c0,0,1.5.1,1.5.1h0s1.5,0,1.5,0h.8c0-.1,1.4-.7,1.4-.7l1.3-.8,1.2-.9.9-1.2.4-.4.3-.8.4-.6.2-.9.3-.7.2-.8v-1.4s0-.6,0-.6l-.4-1.5-.6-1.3-.5-.7-.6-.5-.7-.3-1.3-.3-1.4.3-.5.3-.6.5v.2c-.1,0-.1.5-.1.5l.5.5h.5c0,0,1-.5,1-.5h.3c0-.1.7,0,.7,0l.7.3.5.5.4.6.4,1.4v.3c0,0,0,.3,0,.3v.8c.1,0-.2,1.4-.2,1.4v.4s-.8,1.3-.8,1.3l-.9,1.2-1.1.9-1.3.7-.7.3-1.5.2h-1.5c0-.1-1.4-.6-1.4-.6l-.6-.3-1.2-.8-.5-.5-.7-1.4-.5-1.4v-1.5s0-.3,0-.3v-.4c0,0,.1-1.4.1-1.4l.4-1.3.7-1.3.7-1.3.9-1.2.9-1.1,1-1.2,1-1.1,1.1-1,1.2-1,1.2-.9,1.3-.9,1.1-.9,1.3-.7,1.3-.8,1.2-.8,1.2-.9,1.3-.7,5.2-3.2,1.2-.7,1.1-.8,1.4-.7,1.3-.8h.3c0-.1,0,.4,0,.4l-.5,1.5-.4,1.4-.4,1.4-.4,1.5-.4,1.4-.3.7v.7c0,0-.4,1.3-.4,1.3l-.5,1.4-.4,1.4-.4,1.5-.4,1.4-.5,1.4-.3,1.4-.5,1.5-.2.7-.5,1.4-.4,1.5-.4,1.5-.4.9h0s0,0,0,0l-.3,1.5-.5,1.4-.3,1.4-.5,1.4h0s.2.8.2.8l.4.4h.7c0,0,.3-.4.3-.4l.4-1.5v-.7c.1,0,.6-1.5.6-1.5l.4-1.3.3-1.5.5-1.4.4-1.4.5-1.5.5-1.4.8-2.9.4-1.4.5-1.4.8-2.9.6-1.4.3-.6.5-.8.2-.5.4-.7.3-.7,1.7-2.5,2-2.1.6-.4h.7c0-.1.6,0,.6,0l.4.6.3,1.1v1.5c0,0-.4,1.3-.4,1.3l-.5,1.2h0c0,0-.7.3-.7.3l-.6.3h-.5c0,0-.2.3-.2.3h-.7c0,.1-1.3.9-1.3.9h-.2s-1.1,1-1.1,1h-.2c0,.1-.8,1.6-.8,1.6v.8c0,0,0,.8,0,.8l.3.7.3.3.7.3h.8s.8-.2.8-.2l1.2-1,.6-.5.4-.6.6-.5.6-.8v-.3c0,0,.2,0,.2,0l.4-.7,1-1.1,1.3-.8,2.4-1.7.6-.5.5-.6v.6c0,0,.4,1.5.4,1.5l.7,1.3,1,1.2.5.5,1.3.8,1.4.4h1.5s1.5-.3,1.5-.3l1.3-.6,1.1-1,.8-1.3h0s0-.8,0-.8v-.2c-.1,0-.5-.2-.5-.2h-.4c0,0-.4,0-.4,0l-.5.6-.4.7-.5.6-.6.4-1.4.4h-.7c0,0-.7,0-.7,0l-.9-.3-.5-.4-.4-.2-.3-.6-.5-.6-.7-1.3-.3-1.4v-.7c0,0,.2-1.4.2-1.4l.5-1.4.7-1.3,1-1.1,1.2-.9,1.3-.7,1.4-.4h1.4s1.1.1,1.1.1l1.4.6,1.1.7c-.3.3-.7.7-1,1-1.7,1.6-3.1,3-4.6,4.4-.1.1-.2.2-.2.4,0,.2,0,.5.2.7.1.2.3.2.5.2h0c.2,0,.4,0,.5-.2,1-1,2.1-1.9,3.2-3h0s1.4-1.4,1.4-1.4c0,0,.2-.2.3-.3.2-.2.4-.4.7-.6v.2c.1,0,.6.6.6.6l.5,1.4.4,1.5.2,1.4v1.5c0,0-.3,1.5-.3,1.5l-.2.7-.6,1.3-1.6,2.5-.9,1.2-1,1.1-1.1,1.1-1,1.1-1.1,1-1.2,1-1.2.9-1.2,1-1.2.9-3.7,2.6-1.2.8-1.3.8-1.2.8-1.2.9-1.2.9-1.2.8.3-1.2.5-1.4.5-1.4.5-1.5.4-1.4.4-1.4.4-1.4.6-1.5.6-1.3v-.4s-.3-.5-.3-.5h-.6c0,0-.4.1-.4.1l-.7,1.3-.6,1.3-.5,1.4v.7c-.1,0-.4.4-.4.4v.8c-.1,0-.5,1.4-.5,1.4l-.5,1.4-.4,1.4-.5,1.5-.8,2.8-.2.8-.9,1.1-1.1,1-.5.3-.5.6-1.2,1-1,1.1-1.1,1-1,1.2-1.7,2.5-.8,1.3-.3.7-.4,1.5v.8c0,0,0,.7,0,.7l.3.7.5.6.6.4,1.5.2,1.5-.5.3-.2.5-.6,1.2-.9.8-1.3.8-1.4.6-1.4.5-1.3.5-1,.4-1.5.5-1.5.5-1.4.5-1.5.5-1.2.4-.6,1.2-.9,1.2-.9,1.2-.9.6-.4,1.1-.9,1.2-.8,1.2-.9,1.2-.8,1.2-.9,1.2-.8,1.2-1,.6-.3,1.2-.9,1.2-1,1.1-1,1.2-1,1.1-1,1-1.1,1.1-1.1,1-1.2.9-1.2.8-1.3.7-1.3.5-1.3.2-.3.5-3v-.7s0-.8,0-.8l-.3-.9-.2-.8-.3-.6v-.8c-.1,0-.8-1.4-.8-1.4l-.7-1c1.8-1.8,3.8-3.7,5.9-5.7,0,3-.1,4.5,0,5.2v.2c0,0,0,0,0,0,0,.5.2.7.6.7,0,0,0,0,0,0h0c.2,0,.4-.1.6-.3.1-.2.2-.4.2-.6,0-.6.1-4.6.2-7.1,0-.2,0-.4-.2-.5-.1-.1-.3-.2-.5-.2-1.5,0-2.8,0-3.8,0-3.9,0-4,.3-4.1.8,0,.2,0,.4,0,.6.1.2.3.3.5.3.2,0,.4,0,.6,0,.4,0,1.6-.1,3.2-.1.6,0,1.2,0,1.9,0-2.2,2-4.2,3.9-6.1,5.8l-.2-.2-1.3-.8-1.4-.6-.7-.2h-1.5s-1.5,0-1.5,0l-1.5.2ZM58.2,24l.2.7-.2.7-.5.6-1,1.1-1,1-1,.7h0l.2-.6h0c0,0,.6-1.4.6-1.4l.7-1.3.4-.6.5-.6.8-.4.3.2ZM52.3,47.2v-.3s.2-.6.2-.6l.5-.6,1-.7.7-.5.8-.4h.4c0-.1-.3.4-.3.4l-1,1.2-.5.5-.6.4-.4.5-.7.2h-.2ZM44.9,80l-.6-.3v-.3c-.1,0,0-.7,0-.7l.5-1.4.7-1.3,1-1.2.4-.6,1-1.1,2.1-2.2,1-1,1-.8v.5c0,0-.7,1.5-.7,1.5l-.5,1.5-.3,1-.7,1.4-.3,1.1-.4.6-.7,1.3-.5.6-1.1.9-.6.4-.6.2h-.4ZM71.1,39.4h0Z"/>
    <path class="cls-1" d="M14.3,41.3l-1.6-.5.5-1.6c0-.2.1-.4.1-.7,0-.2,0-.5-.1-.7,0-.2-.2-.4-.4-.6-.2-.2-.4-.3-.7-.4-.3-.1-.6-.1-.9,0-.3,0-.5.2-.7.3-.2.1-.3.3-.4.5,0,.2-.2.3-.2.5l-.8,2.5c0,0,0,.2,0,.3,0,0,.1.2.2.2l4.5,1.4s0,0,0,0h0c.2,0,.3-.1.4-.3l.2-.5c0,0,0-.2,0-.3,0,0-.1-.1-.2-.2ZM11.2,38.6c0,0,0-.2.1-.3,0,0,0-.1.1-.1,0,0,0,0,.1,0,0,0,.1,0,.2,0,.1,0,.2,0,.2.1,0,0,0,0,0,.1,0,0,0,0,0,.2,0,0,0,.2,0,.3l-.5,1.6-.8-.3.5-1.6ZM14.1,42.4h0s0,0,0,0Z"/>
    <path class="cls-1" d="M13.9,30.1l4,2.6c0,0,.1,0,.2,0h0c.1,0,.2,0,.3-.2l.3-.5c0,0,0-.2,0-.3,0,0,0-.2-.2-.2l-1.5-1,1.2-1.9,1.5,1c.2.1.4,0,.5-.1l.3-.5c0,0,0-.2,0-.3,0,0,0-.2-.2-.2l-4-2.6c-.2-.1-.4,0-.5.1l-.3.5c0,0,0,.2,0,.3s0,.2.2.2l1.3.9-1.2,1.9-1.3-.9c-.2-.1-.4,0-.5.1l-.3.5c0,0,0,.2,0,.3,0,0,0,.2.2.2ZM18.1,32.6h0s0,0,0,0Z"/>
    <path class="cls-1" d="M24.3,24.4s0,0,0,0h0c0,0,.2,0,.2,0l.5-.4c.1,0,.1-.2.1-.4l-.4-1.5,1.3-1.2,1.4.6c.1,0,.3,0,.4,0l.5-.4c0,0,.1-.2.1-.3,0-.1-.1-.2-.2-.3l-4.8-2.1c-.1,0-.3,0-.4,0l-.4.4c-.1,0-.1.2-.1.4l1.4,5c0,.1.1.2.2.3ZM24.4,20.7l-.2-.7.6.3-.4.4ZM24.4,24.3h0s0,0,0,0Z"/>
    <path class="cls-1" d="M33.2,17.5c0,.1.2.2.3.2h0c0,0,.1,0,.2,0l3.1-1.6c0,0,.2-.1.2-.2,0,0,0-.2,0-.3l-.2-.5c0-.2-.3-.3-.5-.2l-2.3,1.1-1.7-3.4c0-.2-.3-.3-.5-.2l-.5.2c0,0-.2.1-.2.2,0,0,0,.2,0,.3l2.1,4.2ZM33.6,17.6h0s0,0,0,0Z"/>
    <path class="cls-1" d="M42.6,14c0,0,.1,0,.2,0h0s0,0,0,0l3.9-.8c0,0,.2,0,.2-.2,0,0,0-.2,0-.3v-.5c-.1,0-.2-.2-.3-.2,0,0-.2,0-.3,0l-3,.6-.2-.9,1.3-.3c0,0,.2,0,.2-.2,0,0,0-.2,0-.3v-.5c-.1,0-.2-.2-.3-.2,0,0-.2,0-.3,0l-1.4.3v-.7c-.1,0,2.7-.6,2.7-.6,0,0,.2,0,.2-.2,0,0,0-.2,0-.3v-.5c-.1,0-.2-.2-.3-.2,0,0-.2,0-.3,0l-3.8.8c-.2,0-.3.2-.3.4l.9,4.6c0,0,0,.2.2.2Z"/>
    <path class="cls-1" d="M53.2,12.9h.5c.2,0,.4,0,.4-.3l.2-2.8,2.2,3.2c0,0,.2.2.3.2h.6s0,0,0,0c0,0,.2,0,.2,0,0,0,.1-.2.1-.2l.4-4.7c0,0,0-.2,0-.3,0,0-.2-.1-.2-.1h-.5c0,0-.2,0-.3,0,0,0-.1.2-.1.2l-.2,2.8-2.2-3.2c0,0-.2-.2-.3-.2h-.5c-.1,0-.2,0-.3,0,0,0-.1.2-.1.2l-.4,4.7c0,0,0,.2,0,.3,0,0,.2.1.3.1ZM57.4,13.1s0,0,0,0h0s0,0,0,0Z"/>
    <path class="cls-1" d="M92.5,68.9l-2.7-1.1c-.3-.1-.5-.3-.6-.5,0-.2,0-.5,0-.9,0-.2.2-.3.2-.4,0,0,.2-.2.3-.2,0,0,.2,0,.3,0,.1,0,.3,0,.4,0,.2,0,.3-.2.3-.4v-.6c0-.1-.1-.2-.2-.3,0,0-.2,0-.3,0-.1,0-.3,0-.5,0-.2,0-.4,0-.6.2-.2.1-.4.3-.6.5-.2.2-.4.5-.5.9-.2.4-.2.7-.2,1.1,0,.3,0,.6.2.9.1.3.3.5.5.7.2.2.5.3.7.4l2.7,1.1s0,0,.1,0h0c.2,0,.3,0,.3-.2l.2-.5c0,0,0-.2,0-.3,0,0-.1-.2-.2-.2ZM92.1,70h0s0,0,0,0Z"/>
    <path class="cls-1" d="M85.2,73.3c0-.1-.2-.2-.3-.2-.1,0-.2,0-.3.2l-.4.5c0,.1,0,.3,0,.4l.7,1.3-1.1,1.4-1.5-.3c-.1,0-.3,0-.4.1l-.4.5c0,.1,0,.2,0,.3,0,.1.1.2.3.2l5.1,1s0,0,0,0h0c.1,0,.2,0,.3-.1l.3-.4c0-.1,0-.3,0-.4l-2.5-4.6ZM85.6,76.7l.3.6h-.7c0-.1.3-.6.3-.6ZM84.9,73.2h0s0,0,0,0ZM87,78.8h0s0,0,0,0Z"/>
    <path class="cls-1" d="M79.9,84.3c-.2-.2-.4-.4-.6-.5-.2,0-.4-.1-.7,0-.2,0-.4,0-.7.2-.2.1-.4.2-.6.4l-.8.6c0,0-.1.1-.2.1,0,0-.2,0-.2,0,0,0-.1,0-.2,0,0,0,0,0-.1-.1,0,0,0-.1,0-.2,0,0,0-.2,0-.3,0-.1.1-.2.2-.4.1-.1.3-.3.5-.4.2-.2.4-.3.6-.4.2,0,.4-.1.5-.1,0,0,.2,0,.3,0h.1c.1,0,.3,0,.4,0,.2,0,.4-.1.4-.3v-.6c0-.2,0-.4-.2-.4-.1,0-.2,0-.4,0-.2,0-.4,0-.6,0-.2,0-.5.1-.8.2-.3.1-.6.3-.9.5-.2.2-.5.4-.7.6-.2.2-.4.5-.5.8-.1.3-.2.6-.1.8,0,.3.1.6.3.8.2.3.4.4.7.5.2,0,.5.1.7.1.2,0,.5,0,.7-.2.2-.1.4-.2.6-.4l.4-.4c.1,0,.2-.2.4-.3.1,0,.2-.1.3-.2,0,0,0,0,.2,0,0,0,0,0,0,0,0,0,0,0,0,.1,0,0,0,.1,0,.2,0,0,0,.2-.2.3,0,.1-.2.3-.4.4-.1.1-.3.2-.4.3-.1,0-.3.1-.4.1-.1,0-.2,0-.3,0h-.3c-.2,0-.3.2-.3.4v.6c0,.1,0,.2.1.3,0,0,.2.1.2.1h.3c.2,0,.3,0,.5-.1.2,0,.4-.1.6-.2.2-.1.5-.2.7-.4.3-.2.6-.5.7-.8.2-.3.3-.5.3-.8,0-.3,0-.5,0-.7,0-.2-.2-.4-.3-.6Z"/>
    <path class="cls-1" d="M69.4,88.8c-.3-.3-.6-.5-.9-.6-.7-.3-1.5-.3-2.2,0-.4.2-.7.4-1,.6-.3.3-.5.6-.6.9-.1.3-.2.7-.2,1.1,0,.4,0,.7.2,1.1.1.4.3.7.6.9.3.3.6.5.9.6.3.1.7.2,1.1.2h0c.4,0,.7,0,1.1-.2.4-.2.7-.4,1-.6.3-.3.5-.6.6-.9.1-.3.2-.7.2-1.1,0-.4,0-.7-.2-1.1-.1-.4-.3-.7-.6-.9ZM68.8,90.2c0,.2.1.4.1.6,0,.2,0,.4-.1.6,0,.2-.2.3-.3.5-.2.1-.3.3-.6.3-.2,0-.4.1-.6.1h0c-.2,0-.4,0-.6-.1-.2,0-.3-.2-.5-.3-.1-.1-.2-.3-.3-.5,0-.2-.1-.4-.1-.6,0-.2,0-.4.1-.6,0-.2.2-.3.4-.5.2-.2.3-.3.6-.4.2,0,.4-.1.6-.1h0c.2,0,.4,0,.6.1.2,0,.3.2.5.3s.3.3.3.5Z"/>
    <path class="cls-1" d="M57.5,90.8h-.6c0,0-.2.1-.2.2,0,0,0,.2,0,.3l.3,2.8-2.7-2.8c0,0-.2-.1-.3-.1h-.5c0,0-.2.1-.2.2,0,0,0,.2,0,.3l.5,4.7c0,.2.2.3.4.3h0s0,0,0,0h.5c0,0,.2-.1.2-.2,0,0,0-.2,0-.3l-.3-2.8,2.7,2.8c0,0,.2.1.3.1h.6c0,0,.2-.1.2-.2,0,0,0-.2,0-.3l-.5-4.7c0-.2-.2-.3-.4-.3ZM53.8,96.5h0Z"/>
    <path class="cls-1" d="M52.1,18.3c.3,0,.6,0,.9,0,6.1.2,12.1,2,17.2,5.4.2.1.4.2.6.2.3,0,.5-.2.6-.4,0-.2,0-.6-.3-.8-5.4-3.5-11.6-5.5-18.1-5.7-9.4-.3-18.4,3.3-25.1,9.8-6.5,6.4-10.3,14.9-10.5,24,0,.1,0,.2,0,.3v.2c0,.2,0,.4.2.5,0,.1.2.2.4.2.3,0,.7-.3.7-.7v-.2c0,0,0-.2,0-.3.5-17.9,15.5-32.5,33.4-32.5Z"/>
    <path class="cls-1" d="M86.8,52.7c.1-4.9-.8-9.7-2.6-14.2-.2-.5-.6-.7-.9-.7s-.3,0-.4.2c0,.2-.2.4,0,1,1.8,4.4,2.7,9,2.6,13.7-.5,17.9-15.5,32.5-33.4,32.5s-.6,0-.9,0c-4.6-.1-9.1-1.2-13.3-3.2-.2,0-.4-.1-.6-.1-.4,0-.6.2-.7.4,0,.1,0,.5.6.8,4.4,2.1,9.1,3.2,14,3.4.3,0,.6,0,1,0h0c9.1,0,17.7-3.5,24.2-9.8,6.5-6.4,10.3-14.9,10.5-24Z"/>
    <polygon class="cls-1" points="65.4 13.8 65.8 14.1 65.9 14.1 66.5 14 67 13.6 67.2 13.4 67.3 13.1 67.2 12.5 66.5 11.8 65.9 11.8 65.4 12.2 65 12.8 65.2 13.4 65.4 13.8"/>
    <polygon class="cls-1" points="75.1 18.6 75.5 18.9 75.6 18.9 76.2 18.8 76.7 18.4 76.9 18.2 77 17.9 76.9 17.4 76.2 16.6 75.6 16.7 75.1 17 74.7 17.6 74.9 18.3 75.1 18.6"/>
    <polygon class="cls-1" points="89.7 36.6 90.2 36.9 90.9 37 91.1 37 91.4 36.8 91.7 36.3 91.7 35.3 91.3 35 90.6 34.9 90 35.1 89.6 35.7 89.6 36 89.7 36.5 89.7 36.6"/>
    <polygon class="cls-1" points="93.8 45 93.1 45.2 92.8 45.8 92.7 46.1 92.8 46.6 92.9 46.7 93.4 47 94 47.1 94.3 47.1 94.6 46.9 94.9 46.4 94.9 45.4 94.4 45.1 93.8 45"/>
    <polygon class="cls-1" points="93.7 55.8 93.1 55.9 92.8 56.5 92.7 56.9 92.8 57.4 92.8 57.5 93.3 57.8 94 57.8 94.2 57.8 94.6 57.6 94.8 57.2 94.8 56.2 94.4 55.8 93.7 55.8"/>
    <polygon class="cls-1" points="45.7 92.8 45.3 92.6 45.1 92.5 44.6 92.7 44.1 93.1 43.9 93.3 43.8 93.6 44 94.2 44.7 94.9 45.2 94.8 45.7 94.4 46.1 93.8 45.9 93.1 45.7 92.8"/>
    <polygon class="cls-1" points="35.7 88.6 35.3 88.3 35.2 88.3 34.6 88.5 34.1 88.9 34 89.1 33.9 89.4 34 89.9 34.7 90.6 35.3 90.6 35.8 90.2 36.1 89.5 35.9 88.9 35.7 88.6"/>
    <polygon class="cls-1" points="16.8 70.5 16.3 70.2 15.6 70.2 15.4 70.3 15.1 70.5 14.9 71 15 72 15.5 72.3 16.1 72.3 16.8 72 17 71.4 17.1 71 16.9 70.5 16.8 70.5"/>
    <polygon class="cls-1" points="12.6 60.8 12 60.6 11.4 60.6 11.1 60.6 10.8 60.8 10.6 61.3 10.7 62.3 10.7 62.3 11.2 62.6 11.8 62.6 12.5 62.4 12.7 61.7 12.8 61.4 12.6 60.9 12.6 60.8"/>
    <polygon class="cls-1" points="11.3 51.7 11.6 51.1 11.6 50.7 11.4 50.2 11.4 50.1 10.8 49.9 10.2 49.9 9.9 49.9 9.6 50.1 9.4 50.6 9.4 50.7 9.5 51.6 10 51.9 10.6 51.9 11.3 51.7"/>
  </g>
  <path class="cls-1" d="M52,104.1C23.3,104.1,0,80.7,0,52S23.3,0,52,0s52,23.3,52,52-23.3,52-52,52ZM52,1.2C24,1.2,1.2,24,1.2,52s22.8,50.8,50.8,50.8,50.8-22.8,50.8-50.8S80.1,1.2,52,1.2Z"/>
</svg>